<svg width="243" height="176" viewBox="0 0 243 176" fill="none" xmlns="http://www.w3.org/2000/svg">
<path fill-rule="evenodd" clip-rule="evenodd" d="M89.284 87.2882L87.4036 93.1236H91.1555L89.284 87.2882ZM58.0225 77.7165C61.5571 77.6602 65.6366 78.6787 65.939 83.047C66.0956 85.309 64.8028 87.7177 62.5709 88.3501C66.5863 89.4477 67.1668 95.1882 65.0789 97.2851C62.226 100.15 57.7189 100.023 54.1577 100.141H47.5166L47.5786 77.7168L58.0225 77.7165ZM53.9188 96.036H56.5642C57.7896 96.036 58.6764 95.803 59.236 95.3437C59.7901 94.884 60.0443 94.1743 59.9928 93.2027C59.9464 92.33 59.665 91.6726 59.1438 91.2361C58.6225 90.7995 57.8603 90.5784 56.8639 90.5784H53.7604L53.7643 92.4866C53.7655 92.7254 53.7688 93.0047 53.7802 93.3247C53.7915 93.6447 53.8185 94.1509 53.855 94.8433L53.9188 96.036ZM53.717 86.6649H55.6301C57.2456 86.6649 58.4016 86.4604 59.0985 86.058C59.7886 85.6552 60.1084 85 60.0509 84.0928C59.9958 83.2274 59.688 82.6205 59.1273 82.2719C58.5668 81.9297 57.5923 81.7551 56.21 81.7551H53.7373C53.7311 81.8752 53.7296 82.188 53.7269 82.7045C53.7242 83.2213 53.7251 83.6721 53.7212 84.0624L53.717 86.6649ZM158.769 81.7566C162.52 81.5251 164.755 83.5739 164.884 86.1474C165.01 88.6358 164.024 90.3673 161.126 91.5068L165.761 100.145H160.451L155.296 89.7555L157.446 89.7452C158.655 89.7391 159.6 88.6832 159.641 87.4107C159.701 85.5597 158.507 84.8801 156.839 84.8816L155.013 84.8832L155.042 100.145H150.071L150.079 81.7569L158.769 81.7566ZM112.046 81.8649H117.028V100.131H112.046V81.8649ZM118.509 81.8649H123.492V97.0527H129.652V100.081L118.509 100.131V81.8649ZM165.996 100.192L165.981 81.4877H178.784L178.796 84.6501L171.083 84.613L171.076 88.7812L178.065 88.7444L178.014 91.9704L171.069 91.9695L171.028 96.8546L178.757 96.8814L178.77 100.192H165.996ZM179.497 81.4637H184.546L187.802 93.0749L191.987 81.4637H197.037L190.459 100.163H184.812L179.497 81.4637ZM137.071 87.6711H138.906C140.351 87.6711 141.363 87.4004 141.949 86.8498C142.532 86.3016 142.824 85.5959 142.824 84.7435C142.824 83.9097 142.567 83.2018 142.062 82.6251C141.557 82.0474 140.605 81.7542 139.205 81.7542H137.071V87.6711ZM130.944 77.8601H140.888C143.124 77.8601 145.821 78.62 147.081 79.6664C148.696 81.0098 149.051 82.6014 149.133 84.1649C149.38 88.8359 145.695 91.237 140.786 91.237H137.071V100.138H130.944V77.8601ZM97.617 96.9361L103.448 96.9355C104.429 96.9355 105.828 96.2061 105.277 94.6309C105.116 94.1722 104.718 93.6697 103.907 93.2234C102.864 92.6494 101.271 92.1237 100.017 91.4326C98.8484 90.7889 97.7011 89.6892 97.2371 88.8088C96.3706 87.1647 96.4697 84.7186 97.9861 83.2706C98.9589 82.3422 100.675 81.7818 102.461 81.8856L110.27 81.9011L110.251 84.9966L103.704 85.0255C102.385 85.031 101.47 86.423 102.212 87.304C103.661 89.0248 107.007 89.7342 108.447 90.6918C111.037 92.413 111.583 95.9569 109.731 98.2004C108.441 99.7631 106.177 100.077 103.781 100.086L96.0209 100.116L96.0197 100.106H93.3064L92.2049 96.0634H86.6599L84.9587 100.106L77.4623 100.077L72.3741 89.7555L74.525 89.7452C75.7336 89.7391 76.6785 88.8858 76.7195 87.6133C76.7797 85.7626 75.5857 84.8801 73.9178 84.8816L72.0915 84.8832L72.1206 100.145H67.1492L67.1572 81.7569H75.848C79.599 81.5254 81.8334 83.5739 81.9627 86.1477C82.0882 88.6361 81.0355 90.5023 78.138 91.6422L81.0259 96.8647L86.5356 81.8612L92.698 81.8749L97.617 96.9361Z" fill="#211E1E"/>
</svg>
